<svg width="1440" height="900" viewBox="0 0 1440 900" fill="none" xmlns="http://www.w3.org/2000/svg">
  <rect width="1440" height="900" fill="#F5F5F7"/>
  <rect x="20" y="20" width="1400" height="860" rx="34" fill="#FBFBFD"/>

  <rect x="64" y="58" width="860" height="760" rx="30" fill="rgba(255,255,255,0.9)" stroke="#E5E5EA"/>
  <text x="96" y="112" font-size="22" fill="#6E6E73">文章列表 · 可搜索可筛选</text>
  <rect x="96" y="136" width="350" height="48" rx="16" fill="#FFFFFF" stroke="#D2D2D7"/>
  <rect x="456" y="136" width="170" height="48" rx="16" fill="#FFFFFF" stroke="#D2D2D7"/>

  <rect x="96" y="220" width="250" height="170" rx="20" fill="#FFFFFF" stroke="#E5E5EA"/>
  <rect x="366" y="220" width="250" height="170" rx="20" fill="#FFFFFF" stroke="#E5E5EA"/>
  <rect x="636" y="220" width="250" height="170" rx="20" fill="#FFFFFF" stroke="#E5E5EA"/>
  <rect x="96" y="410" width="250" height="170" rx="20" fill="#FFFFFF" stroke="#E5E5EA"/>
  <rect x="366" y="410" width="250" height="170" rx="20" fill="#FFFFFF" stroke="#E5E5EA"/>
  <rect x="636" y="410" width="250" height="170" rx="20" fill="#FFFFFF" stroke="#E5E5EA"/>

  <rect x="948" y="58" width="428" height="760" rx="30" fill="rgba(255,255,255,0.95)" stroke="#D2D2D7"/>
  <rect x="974" y="84" width="376" height="100" rx="18" fill="#FFFFFF" stroke="#E5E5EA"/>
  <text x="996" y="120" font-size="14" fill="#6E6E73">🐰 UE Technical · 2024-01-17</text>
  <text x="996" y="152" font-size="28" fill="#1D1D1F" font-weight="700">Houdini中岩石任意形变矩阵到UE还原</text>
  <rect x="1310" y="98" width="40" height="40" rx="12" fill="#F5F5F7"/>
  <text x="1324" y="126" font-size="18" fill="#6E6E73">×</text>

  <rect x="974" y="202" width="376" height="590" rx="18" fill="#FFFFFF" stroke="#E5E5EA"/>
  <rect x="1000" y="234" width="324" height="220" rx="16" fill="#F2F2F7"/>
  <rect x="1000" y="478" width="324" height="16" rx="8" fill="#DCE8FA"/>
  <rect x="1000" y="506" width="286" height="16" rx="8" fill="#E9E0CE"/>
  <rect x="1000" y="534" width="324" height="16" rx="8" fill="#DCE8FA"/>
  <rect x="1000" y="574" width="324" height="130" rx="14" fill="#1D1D1F"/>

  <text x="64" y="856" font-size="16" fill="#6E6E73">阅读态设计稿 · 左列表右阅读，移动端自动切换全屏阅读</text>
</svg>
