<svg width="1440" height="900" viewBox="0 0 1440 900" fill="none" xmlns="http://www.w3.org/2000/svg">
  <rect width="1440" height="900" fill="#F5F5F7"/>
  <rect x="20" y="20" width="1400" height="860" rx="34" fill="url(#bg)"/>

  <rect x="64" y="58" width="1312" height="74" rx="22" fill="rgba(255,255,255,0.65)" stroke="rgba(255,255,255,0.9)"/>
  <text x="98" y="104" font-size="26" fill="#161617" font-weight="700">Bunny Blog</text>
  <rect x="965" y="76" width="190" height="38" rx="19" fill="#FFFFFF" stroke="#D2D2D7"/>
  <rect x="1172" y="76" width="170" height="38" rx="19" fill="#0071E3"/>
  <text x="1020" y="101" font-size="14" fill="#6E6E73">Search</text>
  <text x="1218" y="101" font-size="14" fill="#FFFFFF">Open Reader</text>

  <text x="88" y="220" font-size="68" fill="#1D1D1F" font-weight="700">Think in Build Systems.</text>
  <text x="88" y="280" font-size="68" fill="#1D1D1F" font-weight="700">Ship in Real Time.</text>
  <text x="88" y="332" font-size="26" fill="#6E6E73">Notion 同步到 GitHub 的工程与图形学博客，按主题沉浸式阅读。</text>

  <rect x="88" y="380" width="190" height="48" rx="24" fill="#0071E3"/>
  <rect x="294" y="380" width="210" height="48" rx="24" fill="#FFFFFF" stroke="#D2D2D7"/>
  <text x="138" y="412" font-size="18" fill="#FFFFFF">Browse Articles</text>
  <text x="342" y="412" font-size="18" fill="#1D1D1F">View Categories</text>

  <rect x="88" y="470" width="420" height="330" rx="28" fill="rgba(255,255,255,0.78)" stroke="#E5E5EA"/>
  <text x="120" y="520" font-size="24" fill="#1D1D1F" font-weight="700">Categories</text>
  <rect x="120" y="548" width="118" height="38" rx="19" fill="#E8F1FF"/>
  <rect x="248" y="548" width="118" height="38" rx="19" fill="#FFFFFF" stroke="#D2D2D7"/>
  <rect x="376" y="548" width="96" height="38" rx="19" fill="#FFFFFF" stroke="#D2D2D7"/>
  <rect x="120" y="596" width="130" height="38" rx="19" fill="#FFFFFF" stroke="#D2D2D7"/>
  <rect x="260" y="596" width="150" height="38" rx="19" fill="#FFFFFF" stroke="#D2D2D7"/>

  <rect x="540" y="470" width="836" height="330" rx="28" fill="rgba(255,255,255,0.78)" stroke="#E5E5EA"/>
  <text x="572" y="520" font-size="24" fill="#1D1D1F" font-weight="700">Latest Articles</text>
  <rect x="572" y="548" width="240" height="220" rx="20" fill="#FFFFFF" stroke="#E5E5EA"/>
  <rect x="830" y="548" width="240" height="220" rx="20" fill="#FFFFFF" stroke="#E5E5EA"/>
  <rect x="1088" y="548" width="240" height="220" rx="20" fill="#FFFFFF" stroke="#E5E5EA"/>

  <defs>
    <linearGradient id="bg" x1="80" y1="40" x2="1320" y2="860" gradientUnits="userSpaceOnUse">
      <stop stop-color="#FBFBFD"/>
      <stop offset="1" stop-color="#ECECF0"/>
    </linearGradient>
  </defs>
</svg>
